<svg width="648" height="649" viewBox="0 0 648 649" fill="none" xmlns="http://www.w3.org/2000/svg">
<path d="M119.5 424.999C119.5 411.193 108.307 399.999 94.5 399.999C80.693 399.999 69.5 411.193 69.5 424.999H119.5ZM574.5 424.999C574.5 411.193 563.307 399.999 549.5 399.999C535.693 399.999 524.5 411.193 524.5 424.999H574.5ZM302.287 442.956C293.797 453.843 295.737 469.553 306.623 478.046C317.51 486.536 333.22 484.596 341.713 473.709L302.287 442.956ZM471.713 307.043C480.203 296.156 478.263 280.446 467.377 271.953C456.49 263.463 440.78 265.403 432.287 276.289L471.713 307.043ZM302.287 473.709C310.78 484.596 326.49 486.536 337.377 478.046C348.263 469.553 350.203 453.843 341.713 442.956L302.287 473.709ZM211.713 276.289C203.221 265.403 187.511 263.463 176.624 271.953C165.737 280.446 163.796 296.156 172.287 307.043L211.713 276.289ZM297 458.333C297 472.139 308.193 483.333 322 483.333C335.807 483.333 347 472.139 347 458.333H297ZM347 91.666C347 77.859 335.807 66.666 322 66.666C308.193 66.666 297 77.859 297 91.666H347ZM69.5 424.999V458.333H119.5V424.999H69.5ZM69.5 458.333C69.5 526.769 123.752 583.333 192 583.333V533.333C152.552 533.333 119.5 500.356 119.5 458.333H69.5ZM192 583.333H452V533.333H192V583.333ZM452 583.333C520.247 583.333 574.5 526.769 574.5 458.333H524.5C524.5 500.356 491.447 533.333 452 533.333V583.333ZM574.5 458.333V424.999H524.5V458.333H574.5ZM341.713 473.709L471.713 307.043L432.287 276.289L302.287 442.956L341.713 473.709ZM341.713 442.956L211.713 276.289L172.287 307.043L302.287 473.709L341.713 442.956ZM347 458.333V91.666H297V458.333H347Z" fill="#15DBFF"/>
<path d="M628.762 210.715V96.205C628.762 54.2137 594.787 20.1384 552.796 20.0148L438.286 19.6777M628.762 439.286V553.572C628.762 595.651 594.65 629.762 552.572 629.762H438.286M209.714 19.6777L95.2045 20.0148C53.2134 20.1384 19.2383 54.2137 19.2383 96.205V210.715M209.714 629.762H95.4288C53.3499 629.762 19.2383 595.651 19.2383 553.572V439.286" stroke="#15DBFF" stroke-width="38.0952" stroke-linecap="round" stroke-linejoin="round"/>
</svg>
